<?xml version="1.0" encoding="iso-8859-1"?>
<!-- Generator: Adobe Illustrator 18.0.0, SVG Export Plug-In . SVG Version: 6.00 Build 0)  -->
<!DOCTYPE svg PUBLIC "-//W3C//DTD SVG 1.1//EN" "http://www.w3.org/Graphics/SVG/1.1/DTD/svg11.dtd">
<svg version="1.1" xmlns="http://www.w3.org/2000/svg" xmlns:xlink="http://www.w3.org/1999/xlink" x="0px" y="0px"
	 viewBox="0 0 119.411 119.411" style="enable-background:new 0 0 119.411 119.411;" xml:space="preserve">
<g id="_x23_Facebook">
	<g id="Circle-flat-shadow">
		<circle id="XMLID_1_" style="fill:#3D53A0;" cx="59.705" cy="59.705" r="59.705"/>
		<path style="opacity:0.3;fill:#010202;" d="M118.903,67.378L76.006,24.481L59.644,38.292l-9.792,57.059l22.667,22.667
			C96.891,112.686,115.681,92.474,118.903,67.378z"/>
		<path style="fill:#FFFFFF;" d="M49.913,95.427h13.134v-32.61h10.937l1.636-12.667H63.047v-8.998c0,0-0.304-5.328,5.983-5.328
			c6.287,0,7.034,0,7.034,0V24.56c0,0-10.096-1.426-15.635,0.21c-5.539,1.636-8.39,5.749-9.675,9.815c0,0-0.841,2.571-0.841,5.142
			V50.15h-6.567v12.667h6.567V95.427z"/>
	</g>
</g>
<g id="Layer_1">
</g>
</svg>
