<?xml version="1.0" encoding="iso-8859-1"?>
<!-- Generator: Adobe Illustrator 18.0.0, SVG Export Plug-In . SVG Version: 6.00 Build 0)  -->
<!DOCTYPE svg PUBLIC "-//W3C//DTD SVG 1.1//EN" "http://www.w3.org/Graphics/SVG/1.1/DTD/svg11.dtd">
<svg version="1.1" xmlns="http://www.w3.org/2000/svg" xmlns:xlink="http://www.w3.org/1999/xlink" x="0px" y="0px"
	 viewBox="0 0 119.411 120.664" style="enable-background:new 0 0 119.411 120.664;" xml:space="preserve">
<g id="_x23_Github">
	<g id="Circle-Flat-Shadow">
		<circle id="XMLID_42_" style="fill:#77B1D5;" cx="59.705" cy="59.706" r="59.705"/>
		<path style="fill:#5D8693;" d="M90.754,34.363L59.706,89.747l-0.633,1.796L42.776,75.247l-11.268,7.159l19.966,19.966H41.398
			l-1.278-0.47L29.778,91.561l2.83,7.639l-0.332-0.119l-11.387-9.447l12.495,12.495l0.244,0.244h-3.29l15.372,15.372
			c4.491,1.079,9.173,1.666,13.995,1.666c31.892,0,57.94-25.006,59.616-56.48L90.754,34.363z M53.819,106.451l-2.345-4.079
			l2.797,2.797L53.819,106.451z"/>
		<path style="fill:#FFFFFF;" d="M61.601,120.664l-9.283-0.75l-5.348-0.877c0.626-0.577,0.939-1.301,0.939-2.167
			c0-0.145-0.012-1.444-0.037-3.901c-0.025-2.457-0.036-4.6-0.036-6.429l-1.662,0.287c-1.06,0.194-2.396,0.276-4.01,0.253
			c-1.613-0.023-3.287-0.192-5.021-0.506c-1.734-0.312-3.348-1.034-4.841-2.166c-1.493-1.132-2.552-2.614-3.178-4.443l-0.722-1.662
			c-0.482-1.107-1.24-2.336-2.275-3.684c-1.036-1.349-2.083-2.264-3.143-2.745l-0.506-0.362c-0.337-0.241-0.65-0.531-0.939-0.868
			c-0.289-0.337-0.505-0.674-0.65-1.011c-0.145-0.338-0.025-0.615,0.361-0.832c0.386-0.217,1.083-0.323,2.095-0.323l1.444,0.216
			c0.963,0.193,2.155,0.77,3.576,1.734c1.421,0.963,2.588,2.215,3.504,3.756c1.108,1.975,2.444,3.48,4.01,4.516
			c1.565,1.036,3.143,1.553,4.732,1.553c1.589,0,2.962-0.12,4.118-0.36c1.155-0.241,2.239-0.603,3.251-1.084
			c0.433-3.228,1.614-5.708,3.54-7.442c-2.745-0.289-5.213-0.723-7.405-1.301c-2.191-0.578-4.455-1.517-6.79-2.819
			c-2.337-1.3-4.276-2.914-5.816-4.84c-1.541-1.927-2.806-4.456-3.792-7.586c-0.987-3.131-1.481-6.743-1.481-10.837
			c0-5.829,1.903-10.789,5.708-14.883c-1.782-4.382-1.614-9.295,0.505-14.737c1.397-0.434,3.468-0.108,6.213,0.975
			c2.746,1.084,4.756,2.012,6.033,2.782c1.277,0.77,2.3,1.422,3.071,1.951c4.48-1.252,9.104-1.878,13.871-1.878
			c4.768,0,9.392,0.626,13.873,1.878l2.745-1.733c1.877-1.157,4.094-2.216,6.645-3.18c2.553-0.963,4.505-1.228,5.854-0.794
			c2.167,5.443,2.36,10.355,0.577,14.737c3.805,4.094,5.708,9.056,5.708,14.884c0,4.094-0.495,7.717-1.481,10.872
			c-0.987,3.156-2.263,5.683-3.827,7.586c-1.567,1.903-3.518,3.505-5.853,4.804c-2.336,1.301-4.601,2.24-6.792,2.818
			c-2.192,0.578-4.66,1.013-7.405,1.302c2.504,2.167,3.756,5.587,3.756,10.258v15.243c0,0.866,0.301,1.589,0.904,2.167"/>
	</g>
</g>
<g id="Layer_1">
</g>
</svg>
