<?xml version="1.0" encoding="iso-8859-1"?>
<!-- Generator: Adobe Illustrator 18.0.0, SVG Export Plug-In . SVG Version: 6.00 Build 0)  -->
<!DOCTYPE svg PUBLIC "-//W3C//DTD SVG 1.1//EN" "http://www.w3.org/Graphics/SVG/1.1/DTD/svg11.dtd">
<svg version="1.1" xmlns="http://www.w3.org/2000/svg" xmlns:xlink="http://www.w3.org/1999/xlink" x="0px" y="0px"
	 viewBox="0 0 119.411 119.411" style="enable-background:new 0 0 119.411 119.411;" xml:space="preserve">
<g id="_x23_LinkedIn">
	<g id="Circle-Flat-Shadow">
		<circle id="XMLID_7_" style="fill:#0187B5;" cx="59.705" cy="59.705" r="59.705"/>
		<path style="fill:#077284;" d="M83.888,53.043l-14.945,1.696l-3.654-3.654l-7.679,6.988l-1.817,1.817l-0.698-0.78l7.223-7.119
			L47.723,37.394l-11.076,6.215l9.873,9.873l-9.077,30.61l34.134,34.134c19.19-3.872,35.034-16.948,42.754-34.422L83.888,53.043z"/>
		<g id="Linkedin_2_">
			<path style="fill:#FFFFFF;" d="M64.896,54.443c2.132-2.74,4.784-4.471,8.163-4.801c6.912-0.676,12.286,2.387,14.083,9.611
				c0.426,1.714,0.629,3.522,0.652,5.291c0.079,6.076,0.009,12.155,0.054,18.232c0.008,1.04-0.309,1.343-1.337,1.321
				c-2.894-0.064-5.791-0.021-8.687-0.022c-1.485-0.001-1.49-0.002-1.491-1.45c-0.003-5.505,0.009-11.011-0.012-16.516
				c-0.004-0.958-0.062-1.93-0.233-2.87c-0.397-2.183-1.436-3.927-3.762-4.451c-2.539-0.572-4.643,0.215-6.216,2.325
				c-0.941,1.262-1.209,2.721-1.211,4.247c-0.007,5.756-0.003,11.511-0.003,17.267c0,0.423,0,0.845,0,1.333
				c-0.361,0.046-0.633,0.109-0.905,0.11c-3.146,0.007-6.292-0.022-9.438,0.023c-0.84,0.012-1.004-0.309-1.002-1.068
				c0.021-10.546,0.025-21.093-0.002-31.639c-0.002-0.867,0.301-1.119,1.111-1.112c3.039,0.025,6.078,0.036,9.116-0.006
				c0.908-0.012,1.19,0.324,1.134,1.195C64.847,52.452,64.896,53.449,64.896,54.443z"/>
			<path style="fill:#FFFFFF;" d="M47.701,67.257c0,5.148-0.026,10.297,0.021,15.445c0.01,1.062-0.268,1.428-1.379,1.4
				c-2.965-0.076-5.935-0.056-8.901-0.008c-0.903,0.014-1.256-0.202-1.253-1.182c0.031-10.475,0.03-20.95,0.001-31.426
				c-0.003-0.968,0.358-1.227,1.259-1.216c3.003,0.037,6.007,0.047,9.009-0.005c1.022-0.018,1.266,0.388,1.259,1.334
				C47.683,56.817,47.701,62.037,47.701,67.257z"/>
			<path style="fill:#FFFFFF;" d="M48.371,40.171c-0.003,3.379-2.723,5.878-6.426,5.903c-3.614,0.024-6.382-2.562-6.382-5.963
				c0-3.423,2.797-5.984,6.503-5.954C45.741,34.188,48.374,36.699,48.371,40.171z"/>
		</g>
	</g>
</g>
<g id="Layer_1">
</g>
</svg>
